<svg width="37" height="37" viewBox="0 0 37 37" fill="none" xmlns="http://www.w3.org/2000/svg">
<g clip-path="url(#clip0)">
<mask id="path-1-inside-1" fill="white">
<path d="M33.4028 19.5823L26.6732 21.3846L24.0792 19.8883V17.0802L26.6436 15.6076L33.4026 17.4187C33.5385 17.455 33.675 17.4729 33.8103 17.4729C34.5046 17.4729 35.1399 17.0092 35.3275 16.3069C35.5523 15.4675 35.0547 14.605 34.2155 14.3804L30.5101 13.3875L33.9259 11.4264C34.6788 10.9939 34.9394 10.0327 34.5069 9.27945C34.0729 8.52624 33.1135 8.26529 32.3603 8.69877L28.9374 10.6645L29.93 6.95783C30.1546 6.11876 29.6577 5.25604 28.8181 5.03143C27.984 4.81265 27.118 5.30476 26.893 6.14328L25.0895 12.8731L22.5091 14.3551L20.0629 12.9407V9.97308L25.0096 5.02648C25.6237 4.41209 25.6237 3.41693 25.0096 2.80246C24.3954 2.18815 23.4005 2.18815 22.7858 2.80246L20.0629 5.52521V1.57256C20.063 0.70417 19.3587 0 18.4902 0C17.6219 0 16.9176 0.70409 16.9176 1.57256V5.50572L14.2146 2.80246C13.6003 2.18815 12.6052 2.18815 11.9907 2.80246C11.3764 3.41685 11.3764 4.41201 11.9907 5.02648L16.9176 9.95335V12.9521L14.49 14.3527L11.9096 12.8721L10.1073 6.14336C9.88282 5.30484 9.02082 4.81138 8.18238 5.03151C7.34322 5.25611 6.84521 6.11883 7.07005 6.95791L8.06257 10.664L4.6398 8.69877C3.88523 8.26521 2.92475 8.5256 2.49295 9.27985C2.06075 10.0332 2.32138 10.9939 3.07451 11.4263L6.49009 13.3875L2.78457 14.3803C1.94533 14.6049 1.44748 15.4675 1.67224 16.3068C1.86035 17.0091 2.4955 17.4728 3.18985 17.4728C3.32508 17.4728 3.46166 17.4549 3.59793 17.4186L10.3578 15.6069L12.9193 17.0776L12.9219 19.8882L10.3272 21.3872L3.59793 19.5823C2.7646 19.3636 1.89733 19.8562 1.67224 20.6944C1.44748 21.5334 1.94533 22.3962 2.78457 22.6196L6.47651 23.6098L3.0706 25.576C2.31874 26.0106 2.06075 26.9716 2.49558 27.7235C2.78689 28.2296 3.31533 28.5098 3.85824 28.5098C4.12478 28.5098 4.39531 28.4435 4.64316 28.2984L8.06632 26.323L7.07005 30.0433C6.84521 30.8837 7.34322 31.7438 8.18238 31.9698C8.31824 32.0066 8.45475 32.024 8.59005 32.024C9.28408 32.024 9.91924 31.5596 10.1073 30.8568L11.9186 24.0991L14.4947 22.6127L16.9176 24.0108V27.048L11.9907 31.975C11.3764 32.5893 11.3764 33.5843 11.9907 34.1989C12.2979 34.5061 12.6996 34.6583 13.1026 34.6583C13.5043 34.6583 13.9074 34.5061 14.2146 34.1989L16.9176 31.4958V35.4276C16.9176 36.2976 17.6219 37.0002 18.4902 37.0002C19.3587 37.0002 20.063 36.2974 20.063 35.4276V31.4761L22.7858 34.1989C23.0929 34.5061 23.4946 34.6583 23.8978 34.6583C24.3009 34.6583 24.7026 34.5061 25.0097 34.1989C25.6238 33.5844 25.6238 32.5894 25.0097 31.975L20.063 27.0284V24.0229L22.5068 22.6125L25.0821 24.0989L26.8934 30.8566C27.0812 31.5595 27.7164 32.0238 28.4103 32.0238C28.5452 32.0238 28.6821 32.0064 28.8182 31.9696C29.6579 31.7436 30.1547 30.8836 29.9302 30.0431L28.9328 26.3228L32.3572 28.2983C32.6052 28.4432 32.8756 28.5096 33.1422 28.5096C33.6851 28.5096 34.2134 28.2294 34.5048 27.7233C34.9395 26.9714 34.6817 26.0106 33.9298 25.5758L30.5239 23.61L34.2157 22.6197C35.055 22.3963 35.5526 21.5334 35.3277 20.6946C35.1043 19.8562 34.2406 19.3625 33.4028 19.5823ZM20.934 19.8883L18.5 21.294L16.0679 19.8882L16.0651 17.0751L18.5 15.6703L20.934 17.0772V19.8883Z"/>
</mask>
<path d="M33.4028 19.5823L26.6732 21.3846L24.0792 19.8883V17.0802L26.6436 15.6076L33.4026 17.4187C33.5385 17.455 33.675 17.4729 33.8103 17.4729C34.5046 17.4729 35.1399 17.0092 35.3275 16.3069C35.5523 15.4675 35.0547 14.605 34.2155 14.3804L30.5101 13.3875L33.9259 11.4264C34.6788 10.9939 34.9394 10.0327 34.5069 9.27945C34.0729 8.52624 33.1135 8.26529 32.3603 8.69877L28.9374 10.6645L29.93 6.95783C30.1546 6.11876 29.6577 5.25604 28.8181 5.03143C27.984 4.81265 27.118 5.30476 26.893 6.14328L25.0895 12.8731L22.5091 14.3551L20.0629 12.9407V9.97308L25.0096 5.02648C25.6237 4.41209 25.6237 3.41693 25.0096 2.80246C24.3954 2.18815 23.4005 2.18815 22.7858 2.80246L20.0629 5.52521V1.57256C20.063 0.70417 19.3587 0 18.4902 0C17.6219 0 16.9176 0.70409 16.9176 1.57256V5.50572L14.2146 2.80246C13.6003 2.18815 12.6052 2.18815 11.9907 2.80246C11.3764 3.41685 11.3764 4.41201 11.9907 5.02648L16.9176 9.95335V12.9521L14.49 14.3527L11.9096 12.8721L10.1073 6.14336C9.88282 5.30484 9.02082 4.81138 8.18238 5.03151C7.34322 5.25611 6.84521 6.11883 7.07005 6.95791L8.06257 10.664L4.6398 8.69877C3.88523 8.26521 2.92475 8.5256 2.49295 9.27985C2.06075 10.0332 2.32138 10.9939 3.07451 11.4263L6.49009 13.3875L2.78457 14.3803C1.94533 14.6049 1.44748 15.4675 1.67224 16.3068C1.86035 17.0091 2.4955 17.4728 3.18985 17.4728C3.32508 17.4728 3.46166 17.4549 3.59793 17.4186L10.3578 15.6069L12.9193 17.0776L12.9219 19.8882L10.3272 21.3872L3.59793 19.5823C2.7646 19.3636 1.89733 19.8562 1.67224 20.6944C1.44748 21.5334 1.94533 22.3962 2.78457 22.6196L6.47651 23.6098L3.0706 25.576C2.31874 26.0106 2.06075 26.9716 2.49558 27.7235C2.78689 28.2296 3.31533 28.5098 3.85824 28.5098C4.12478 28.5098 4.39531 28.4435 4.64316 28.2984L8.06632 26.323L7.07005 30.0433C6.84521 30.8837 7.34322 31.7438 8.18238 31.9698C8.31824 32.0066 8.45475 32.024 8.59005 32.024C9.28408 32.024 9.91924 31.5596 10.1073 30.8568L11.9186 24.0991L14.4947 22.6127L16.9176 24.0108V27.048L11.9907 31.975C11.3764 32.5893 11.3764 33.5843 11.9907 34.1989C12.2979 34.5061 12.6996 34.6583 13.1026 34.6583C13.5043 34.6583 13.9074 34.5061 14.2146 34.1989L16.9176 31.4958V35.4276C16.9176 36.2976 17.6219 37.0002 18.4902 37.0002C19.3587 37.0002 20.063 36.2974 20.063 35.4276V31.4761L22.7858 34.1989C23.0929 34.5061 23.4946 34.6583 23.8978 34.6583C24.3009 34.6583 24.7026 34.5061 25.0097 34.1989C25.6238 33.5844 25.6238 32.5894 25.0097 31.975L20.063 27.0284V24.0229L22.5068 22.6125L25.0821 24.0989L26.8934 30.8566C27.0812 31.5595 27.7164 32.0238 28.4103 32.0238C28.5452 32.0238 28.6821 32.0064 28.8182 31.9696C29.6579 31.7436 30.1547 30.8836 29.9302 30.0431L28.9328 26.3228L32.3572 28.2983C32.6052 28.4432 32.8756 28.5096 33.1422 28.5096C33.6851 28.5096 34.2134 28.2294 34.5048 27.7233C34.9395 26.9714 34.6817 26.0106 33.9298 25.5758L30.5239 23.61L34.2157 22.6197C35.055 22.3963 35.5526 21.5334 35.3277 20.6946C35.1043 19.8562 34.2406 19.3625 33.4028 19.5823ZM20.934 19.8883L18.5 21.294L16.0679 19.8882L16.0651 17.0751L18.5 15.6703L20.934 17.0772V19.8883Z" fill="#81E8FF" stroke="#0167FF" mask="url(#path-1-inside-1)"/>
</g>
<defs>
<clipPath id="clip0">
<rect width="37" height="37" fill="white"/>
</clipPath>
</defs>
</svg>
