<svg width="49" height="27" viewBox="0 0 49 27" fill="none" xmlns="http://www.w3.org/2000/svg">
<path d="M4.26266 26H1C1.90093 -7.16305 46.8411 -7.50318 48.166 26H44.8803C41.4356 -5.63245 4.26266 1.39698 4.26266 26Z" fill="#FE0011" stroke="#FE0011" stroke-linecap="round" stroke-linejoin="round"/>
<path d="M7 26.5H4C4.68894 -3.26164 45 -1.56098 45 26.5L42 26.5C36.8064 -0.880701 9.17282 6.14872 7 26.5Z" fill="#FF8310"/>
<path d="M10.5 26.5H7C7.74194 1.89698 41.3521 1.6135 42 26.5L38.5 26.5C36.4862 4.90149 10.5 8.18946 10.5 26.5Z" fill="#FBE713"/>
<path d="M13.5069 25.9999H10.4332C11.0162 5.30851 38.4148 6.38559 38.6268 25.9999H35.6591C34.9701 9.22 13.5069 11.3175 13.5069 25.9999Z" fill="#00A82F" stroke="#00A82F" stroke-linecap="round" stroke-linejoin="round"/>
<path d="M16.5 26.5H13.5C14.0299 10.9672 35.5 10.5 36 26.5L32.5 26.5C32.5 15.0489 16.7222 15.3323 16.5 26.5Z" fill="#009FDB"/>
<path d="M29.5 26.5L32.5 26.5C33 15.5 16.5 14.5 16.5 26.5H20C20.318 19.5461 29.394 19.8674 29.5 26.5Z" fill="#890092"/>
</svg>
